<svg width="122" height="34" viewBox="0 0 122 34" fill="none" xmlns="http://www.w3.org/2000/svg">
<path fill-rule="evenodd" clip-rule="evenodd" d="M65.8123 7.65283C66.9774 6.95243 68.6003 6.51667 70.3976 6.51667C73.9429 6.51667 76.8168 8.20817 76.8168 10.2943V12.1833C76.8168 14.2106 75.9284 16.0225 74.5339 17.2354C74.8225 18.9173 74.9826 20.7083 74.9826 22.5723C74.9826 24.9186 74.724 27.145 74.2734 29.1833H71.0782C69.9183 23.477 67.992 19.739 65.8123 19.739C63.632 19.739 61.7062 23.477 60.5464 29.1833H57.3509C56.9006 27.145 56.6417 24.9186 56.6417 22.5723C56.6417 20.7083 56.8021 18.9173 57.0904 17.2354C55.6959 16.0225 54.8078 14.2106 54.8078 12.1833V10.2943C54.8078 8.20817 57.6808 6.51667 61.227 6.51667C63.0249 6.51667 64.6472 6.95243 65.8123 7.65283ZM73.3509 15.7924C74.3881 14.8897 74.9826 13.5748 74.9826 12.1833L74.9823 10.2943C74.9823 9.74581 73.3757 8.40536 70.3973 8.40536C68.9992 8.40536 67.6657 8.72553 66.7369 9.28398L63.875 10.9857C62.8738 11.5812 61.1948 12.1833 59.923 12.1833H58.4759V10.2943H59.923C60.7186 10.2943 62.0845 9.86935 62.958 9.35L63.8419 8.82442C63.0642 8.56035 62.166 8.40536 61.2276 8.40536C58.2489 8.40536 56.6423 9.74581 56.6423 10.2943V12.1833C56.6423 13.5751 57.2368 14.8903 58.2739 15.7919L59.0803 16.4934L58.8971 17.5641C58.6176 19.1919 58.4762 20.8771 58.4762 22.5723C58.4762 24.1731 58.6038 25.7558 58.8566 27.2943H59.0828C60.564 21.1066 62.8777 17.85 65.8123 17.85C68.7469 17.85 71.0601 21.1066 72.5415 27.2943H72.7677C73.0202 25.7558 73.1484 24.1731 73.1484 22.5723C73.1484 20.8771 73.007 19.1921 72.7275 17.5641L72.544 16.4934L73.3509 15.7924Z" fill="white"/>
<path fill-rule="evenodd" clip-rule="evenodd" d="M82.319 17C82.319 26.3888 74.9287 34 65.8123 34C56.6959 34 49.3056 26.3888 49.3056 17C49.3056 7.61116 56.6959 0 65.8123 0C74.9287 0 82.319 7.61116 82.319 17ZM80.6683 17C80.6683 25.45 74.0171 32.3 65.8123 32.3C57.6075 32.3 50.9562 25.45 50.9562 17C50.9562 8.55004 57.6075 1.7 65.8123 1.7C74.0171 1.7 80.6683 8.55004 80.6683 17Z" fill="white"/>
<path fill-rule="evenodd" clip-rule="evenodd" d="M12.5946 21.471V25.551H11.0595V22.95H1.55163L1.53512 25.551H0L0.0165067 21.471H0.577735C1.30403 21.4257 1.81574 20.8363 2.11286 19.703C2.40998 18.5583 2.59155 16.949 2.65758 14.875L2.77313 11.05H10.8944V21.471H12.5946ZM4.11017 15.028C4.05515 16.7053 3.9231 18.0937 3.71401 19.193C3.51593 20.2923 3.1913 21.0517 2.74012 21.471H9.26027V12.529H4.19271L4.11017 15.028Z" fill="white"/>
<path d="M23.2367 21.471V22.95H14.8513V11.05H23.0056V12.529H16.5019V16.184H22.2958V17.629H16.5019V21.471H23.2367Z" fill="white"/>
<path d="M35.7659 11.05V22.95H34.1153V17.646H27.4796V22.95H25.8289V11.05H27.4796V16.167H34.1153V11.05H35.7659Z" fill="white"/>
<path d="M47.3093 12.529H43.3477V22.95H41.73V12.529H37.7849V11.05H47.3093V12.529Z" fill="white"/>
<path d="M94.8146 14.28L94.8311 22.95H96.4157L96.3992 11.05H95.0457L90.2917 19.414L85.4718 11.05H84.1182V22.95H85.7029V14.331L89.8791 21.505H90.6384L94.8146 14.28Z" fill="white"/>
<path d="M108.398 22.95V21.471H101.663V17.629H107.457V16.184H101.663V12.529H108.167V11.05H100.012V22.95H108.398Z" fill="white"/>
<path fill-rule="evenodd" clip-rule="evenodd" d="M122 25.551V21.471H120.3V11.05H112.178L112.063 14.875C111.997 16.949 111.815 18.5583 111.518 19.703C111.221 20.8363 110.709 21.4257 109.983 21.471H109.422L109.405 25.551H110.94L110.957 22.95H120.465V25.551H122ZM113.119 19.193C113.328 18.0937 113.461 16.7053 113.516 15.028L113.598 12.529H118.666V21.471H112.145C112.597 21.0517 112.921 20.2923 113.119 19.193Z" fill="white"/>
</svg>
