<svg width="22" height="22" viewBox="0 0 22 22" fill="none" xmlns="http://www.w3.org/2000/svg">
<g clip-path="url(#clip0_550_187)">
<path d="M21.5446 15.8334L18.2485 12.5384C17.9556 12.2447 17.5656 12.0832 17.1506 12.0832C17.1506 12.0832 17.1499 12.0832 17.1491 12.0832C16.7342 12.0832 16.3441 12.2455 16.0512 12.5384L13.8538 14.735L7.26097 8.14426L9.45833 5.9476C10.0644 5.34174 10.0644 4.35526 9.45755 3.74939L6.16073 0.454401C5.8678 0.161565 5.47775 0 5.06283 0H5.06205C4.64636 0 4.2563 0.162342 3.96338 0.455955L0.666561 3.75172C0.566327 3.85115 -0.30236 4.79102 0.110228 6.85641C0.59663 9.28687 2.63237 12.3084 6.16073 15.8357C11.2105 20.8838 14.3954 22.0008 16.2252 22.0008C17.4917 22.0008 18.1102 21.4656 18.2485 21.3273L21.5446 18.0323C21.8383 17.7387 22.0007 17.348 21.9999 16.9325C21.9999 16.5177 21.8383 16.127 21.5446 15.8334ZM17.1499 20.2282C17.1281 20.25 14.5011 21.9751 7.25941 14.7366C-0.138412 7.34188 1.76835 4.84927 1.76524 4.85005L5.06205 1.55351L8.35887 4.85005L5.61217 7.59588C5.30836 7.89959 5.30836 8.3905 5.61217 8.69421L13.3037 16.3833C13.6075 16.687 14.0986 16.687 14.4024 16.3833L17.1491 13.6367L20.4459 16.9332L17.1499 20.2282Z" fill="white"/>
</g>
<defs>
<clipPath id="clip0_550_187">
<rect width="22" height="22" fill="white"/>
</clipPath>
</defs>
</svg>
