<svg width="150" height="34" viewBox="0 0 150 34" fill="none" xmlns="http://www.w3.org/2000/svg">
<path fill-rule="evenodd" clip-rule="evenodd" d="M80.9167 7.65283C82.3493 6.95243 84.3446 6.51667 86.5544 6.51667C90.9135 6.51667 94.4469 8.20817 94.4469 10.2943V12.1833C94.4469 14.2106 93.3546 16.0225 91.64 17.2354C91.9949 18.9173 92.1917 20.7083 92.1917 22.5723C92.1917 24.9186 91.8738 27.145 91.3197 29.1833H87.3912C85.9652 23.477 83.5967 19.739 80.9167 19.739C78.2361 19.739 75.8683 23.477 74.4423 29.1833H70.5135C69.9597 27.145 69.6414 24.9186 69.6414 22.5723C69.6414 20.7083 69.8386 18.9173 70.1931 17.2354C68.4785 16.0225 67.3867 14.2106 67.3867 12.1833V10.2943C67.3867 8.20817 70.919 6.51667 75.2791 6.51667C77.4896 6.51667 79.4843 6.95243 80.9167 7.65283ZM90.1855 15.7924C91.4608 14.8897 92.1917 13.5748 92.1917 12.1833L92.1914 10.2943C92.1914 9.74581 90.216 8.40536 86.5541 8.40536C84.8351 8.40536 83.1956 8.72553 82.0536 9.28398L78.5348 10.9857C77.3039 11.5812 75.2395 12.1833 73.6758 12.1833H71.8966V10.2943H73.6758C74.654 10.2943 76.3334 9.86935 77.4074 9.35L78.4942 8.82442C77.5379 8.56035 76.4336 8.40536 75.2798 8.40536C71.6175 8.40536 69.6421 9.74581 69.6421 10.2943V12.1833C69.6421 13.5751 70.3731 14.8903 71.6483 15.7919L72.6397 16.4934L72.4144 17.5641C72.0708 19.1919 71.8969 20.8771 71.8969 22.5723C71.8969 24.1731 72.0539 25.7558 72.3647 27.2943H72.6428C74.4639 21.1066 77.3086 17.85 80.9167 17.85C84.5249 17.85 87.3689 21.1066 89.1904 27.2943H89.4684C89.779 25.7558 89.9366 24.1731 89.9366 22.5723C89.9366 20.8771 89.7627 19.1921 89.4191 17.5641L89.1935 16.4934L90.1855 15.7924Z" fill="#17A92F"/>
<path fill-rule="evenodd" clip-rule="evenodd" d="M101.212 17C101.212 26.3888 92.1254 34 80.9167 34C69.708 34 60.6216 26.3888 60.6216 17C60.6216 7.61116 69.708 0 80.9167 0C92.1254 0 101.212 7.61116 101.212 17ZM99.1824 17C99.1824 25.45 91.0046 32.3 80.9167 32.3C70.8289 32.3 62.6511 25.45 62.6511 17C62.6511 8.55004 70.8289 1.7 80.9167 1.7C91.0046 1.7 99.1824 8.55004 99.1824 17Z" fill="#17A92F"/>
<path fill-rule="evenodd" clip-rule="evenodd" d="M15.4852 21.471V25.551H13.5977V22.95H1.90774L1.88745 25.551H0L0.0202951 21.471H0.71033C1.60332 21.4257 2.23247 20.8363 2.59778 19.703C2.96309 18.5583 3.18634 16.949 3.26752 14.875L3.40958 11.05H13.3948V21.471H15.4852ZM5.05349 15.028C4.98584 16.7053 4.82348 18.0937 4.56641 19.193C4.32287 20.2923 3.92373 21.0517 3.36899 21.471H11.3856V12.529H5.15497L5.05349 15.028Z" fill="#17A92F"/>
<path d="M28.5697 21.471V22.95H18.2598V11.05H28.2856V12.529H20.2893V16.184H27.4129V17.629H20.2893V21.471H28.5697Z" fill="#17A92F"/>
<path d="M43.9745 11.05V22.95H41.945V17.646H33.7863V22.95H31.7568V11.05H33.7863V16.167H41.945V11.05H43.9745Z" fill="#17A92F"/>
<path d="M58.1672 12.529H53.2963V22.95H51.3074V12.529H46.4569V11.05H58.1672V12.529Z" fill="#17A92F"/>
<path d="M116.575 14.28L116.596 22.95H118.544L118.524 11.05H116.859L111.014 19.414L105.088 11.05H103.424V22.95H105.372V14.331L110.507 21.505H111.441L116.575 14.28Z" fill="#17A92F"/>
<path d="M133.276 22.95V21.471H124.996V17.629H132.119V16.184H124.996V12.529H132.992V11.05H122.966V22.95H133.276Z" fill="#17A92F"/>
<path fill-rule="evenodd" clip-rule="evenodd" d="M150 25.551V21.471H147.91V11.05H137.924L137.782 14.875C137.701 16.949 137.478 18.5583 137.113 19.703C136.747 20.8363 136.118 21.4257 135.225 21.471H134.535L134.515 25.551H136.402L136.423 22.95H148.113V25.551H150ZM139.081 19.193C139.338 18.0937 139.501 16.7053 139.568 15.028L139.67 12.529H145.9V21.471H137.884C138.439 21.0517 138.838 20.2923 139.081 19.193Z" fill="#17A92F"/>
</svg>
