<svg width="22" height="23" viewBox="0 0 22 23" fill="none" xmlns="http://www.w3.org/2000/svg">
<path d="M19.25 19.75H2.75C2.02065 19.75 1.32118 19.4603 0.805456 18.9445C0.289731 18.4288 0 17.7293 0 17V6C0 5.27065 0.289731 4.57118 0.805456 4.05546C1.32118 3.53973 2.02065 3.25 2.75 3.25H19.25C19.9793 3.25 20.6788 3.53973 21.1945 4.05546C21.7103 4.57118 22 5.27065 22 6V17C22 17.7293 21.7103 18.4288 21.1945 18.9445C20.6788 19.4603 19.9793 19.75 19.25 19.75ZM2.75 4.625C2.38533 4.625 2.03559 4.76987 1.77773 5.02773C1.51987 5.28559 1.375 5.63533 1.375 6V17C1.375 17.3647 1.51987 17.7144 1.77773 17.9723C2.03559 18.2301 2.38533 18.375 2.75 18.375H19.25C19.6147 18.375 19.9644 18.2301 20.2223 17.9723C20.4801 17.7144 20.625 17.3647 20.625 17V6C20.625 5.63533 20.4801 5.28559 20.2223 5.02773C19.9644 4.76987 19.6147 4.625 19.25 4.625H2.75Z" fill="white"/>
<path d="M11 12.8748C10.8459 12.8748 10.6963 12.8229 10.5751 12.7277L0.950135 5.16516C0.877467 5.10997 0.816514 5.04086 0.77083 4.96187C0.725145 4.88288 0.695643 4.79558 0.684044 4.70507C0.672444 4.61456 0.67898 4.52264 0.703269 4.43468C0.727558 4.34672 0.769115 4.26448 0.825516 4.19274C0.881918 4.12101 0.952036 4.06122 1.03178 4.01686C1.11153 3.97251 1.19931 3.94447 1.29 3.93439C1.38069 3.9243 1.47248 3.93238 1.56003 3.95813C1.64757 3.98389 1.72911 4.02682 1.79989 4.08441L11 11.3128L20.2001 4.08441C20.2709 4.02682 20.3525 3.98389 20.44 3.95813C20.5275 3.93238 20.6193 3.9243 20.71 3.93439C20.8007 3.94447 20.8885 3.97251 20.9682 4.01686C21.048 4.06122 21.1181 4.12101 21.1745 4.19274C21.2309 4.26448 21.2725 4.34672 21.2968 4.43468C21.321 4.52264 21.3276 4.61456 21.316 4.70507C21.3044 4.79558 21.2749 4.88288 21.2292 4.96187C21.1835 5.04086 21.1226 5.10997 21.0499 5.16516L11.4249 12.7277C11.3038 12.8229 11.1541 12.8748 11 12.8748Z" fill="white"/>
<path d="M1.3751 19.0624C1.23914 19.0623 1.10625 19.022 0.99322 18.9464C0.880188 18.8709 0.792092 18.7635 0.740069 18.6379C0.688046 18.5123 0.674431 18.3741 0.700947 18.2408C0.727462 18.1074 0.792916 17.9849 0.889035 17.8888L8.45154 10.3263C8.5812 10.2011 8.75486 10.1318 8.93512 10.1333C9.11539 10.1349 9.28782 10.2072 9.41529 10.3347C9.54276 10.4621 9.61506 10.6346 9.61663 10.8148C9.61819 10.9951 9.5489 11.1688 9.42366 11.2984L1.86116 18.8609C1.73226 18.9899 1.55742 19.0623 1.3751 19.0624Z" fill="white"/>
<path d="M20.6251 19.0624C20.4428 19.0623 20.2679 18.9899 20.139 18.8609L12.5765 11.2984C12.4513 11.1688 12.382 10.9951 12.3836 10.8148C12.3851 10.6346 12.4574 10.4621 12.5849 10.3347C12.7124 10.2072 12.8848 10.1349 13.0651 10.1333C13.2453 10.1318 13.419 10.2011 13.5487 10.3263L21.1112 17.8888C21.2073 17.9849 21.2727 18.1074 21.2992 18.2408C21.3258 18.3741 21.3121 18.5123 21.2601 18.6379C21.2081 18.7635 21.12 18.8709 21.007 18.9464C20.8939 19.022 20.7611 19.0623 20.6251 19.0624Z" fill="white"/>
</svg>
