<svg width="97" height="76" viewBox="0 0 97 76" fill="none" xmlns="http://www.w3.org/2000/svg">
<rect x="0.5" width="96" height="76" rx="10" fill="#002D70"/>
<path d="M32.875 17.6875V58.3125H64.125V28L63.6563 27.5312L54.2813 18.1562L53.8125 17.6875H32.875ZM36 20.8125H51.625V30.1875H61V55.1875H36V20.8125ZM54.75 23L58.8125 27.0625H54.75V23ZM39.125 27.0625V30.1875H48.5V27.0625H39.125ZM39.125 33.3125V36.4375H57.875V33.3125H39.125ZM44.5938 38C43.1875 38 42.0938 38.9375 41.4688 40.0312C40.8438 41.125 40.6875 42.5312 40.6875 44.0938C40.6875 45.0312 41 45.9688 41.1562 46.9063C40.5312 47.0625 39.9062 47.5312 39.125 47.5312V50.6562C40.2188 50.6562 41.3125 50.5 42.25 50.1875C42.4062 50.5 42.4062 50.6562 42.7188 50.9688C43.3438 51.5938 44.2812 52.0625 45.375 52.0625C47.875 52.0625 49.4375 50.3438 50.5312 49.0938C50.6875 48.7812 50.8438 48.625 51 48.4688C51 48.625 51 48.7812 51.1563 48.9375C51.3125 49.25 51.4688 49.5625 51.7812 49.875C52.0938 50.1875 52.7188 50.5 53.1875 50.5C54.125 50.5 54.75 49.875 55.0625 49.5625C55.375 49.25 55.6875 48.7813 56 48.4688C56.625 47.8438 57.0938 47.375 57.7188 47.375V44.25C55.8438 44.25 54.4375 45.3437 53.6562 46.2812C53.6562 46.125 53.6563 45.9688 53.5 45.8125C53.3438 45.5 53.1875 45.1875 52.875 44.7187C52.5625 44.25 52.0938 44.25 51.625 44.25C50.375 44.25 49.9062 45.0312 49.4375 45.5C48.9688 45.9687 48.5 46.5938 48.1875 47.2188C47.25 48.3125 46.625 48.9375 45.375 48.9375C45.2188 48.9375 45.2188 48.7812 45.0625 48.7812C45.2188 48.7812 45.2188 48.625 45.375 48.625C47.0938 47.2187 48.5 45.3438 48.5 42.8438C48.5 41.5938 48.1875 40.5 47.5625 39.5625C46.9375 38.625 45.8438 38 44.5938 38ZM44.4375 41.125C44.9062 41.125 44.9062 41.125 45.0625 41.4375C45.2188 41.75 45.375 42.2188 45.375 43C45.375 43.9375 44.9062 44.875 44.125 45.6562C44.125 45.1875 43.8125 44.5625 43.8125 44.25C43.8125 43 43.9688 42.0625 44.2812 41.5937C44.4375 41.2812 44.4375 41.125 44.4375 41.125Z" fill="white"/>
</svg>
