<svg width="96" height="76" viewBox="0 0 96 76" fill="none" xmlns="http://www.w3.org/2000/svg">
<rect width="96" height="76" rx="10" fill="#002D70"/>
<path d="M61.8333 16.125C62.7174 16.125 63.5652 16.4542 64.1904 17.0403C64.8155 17.6263 65.1667 18.4212 65.1667 19.25V56.75C65.1667 57.5788 64.8155 58.3737 64.1904 58.9597C63.5652 59.5458 62.7174 59.875 61.8333 59.875H35.1667C34.2826 59.875 33.4348 59.5458 32.8096 58.9597C32.1845 58.3737 31.8333 57.5788 31.8333 56.75V19.25C31.8333 18.4212 32.1845 17.6263 32.8096 17.0403C33.4348 16.4542 34.2826 16.125 35.1667 16.125H61.8333ZM35.1667 13C33.3986 13 31.7029 13.6585 30.4526 14.8306C29.2024 16.0027 28.5 17.5924 28.5 19.25V56.75C28.5 58.4076 29.2024 59.9973 30.4526 61.1694C31.7029 62.3415 33.3986 63 35.1667 63H61.8333C63.6014 63 65.2971 62.3415 66.5474 61.1694C67.7976 59.9973 68.5 58.4076 68.5 56.75V19.25C68.5 17.5924 67.7976 16.0027 66.5474 14.8306C65.2971 13.6585 63.6014 13 61.8333 13H35.1667Z" fill="white"/>
<path d="M35.1667 20.8125C35.1667 20.3981 35.3423 20.0007 35.6549 19.7076C35.9675 19.4146 36.3914 19.25 36.8334 19.25H60.1667C60.6088 19.25 61.0327 19.4146 61.3453 19.7076C61.6578 20.0007 61.8334 20.3981 61.8334 20.8125V27.0625C61.8334 27.4769 61.6578 27.8743 61.3453 28.1674C61.0327 28.4604 60.6088 28.625 60.1667 28.625H36.8334C36.3914 28.625 35.9675 28.4604 35.6549 28.1674C35.3423 27.8743 35.1667 27.4769 35.1667 27.0625V20.8125ZM35.1667 33.3125C35.1667 32.8981 35.3423 32.5007 35.6549 32.2076C35.9675 31.9146 36.3914 31.75 36.8334 31.75H40.1667C40.6088 31.75 41.0327 31.9146 41.3453 32.2076C41.6578 32.5007 41.8334 32.8981 41.8334 33.3125V36.4375C41.8334 36.8519 41.6578 37.2493 41.3453 37.5424C41.0327 37.8354 40.6088 38 40.1667 38H36.8334C36.3914 38 35.9675 37.8354 35.6549 37.5424C35.3423 37.2493 35.1667 36.8519 35.1667 36.4375V33.3125ZM35.1667 42.6875C35.1667 42.2731 35.3423 41.8757 35.6549 41.5826C35.9675 41.2896 36.3914 41.125 36.8334 41.125H40.1667C40.6088 41.125 41.0327 41.2896 41.3453 41.5826C41.6578 41.8757 41.8334 42.2731 41.8334 42.6875V45.8125C41.8334 46.2269 41.6578 46.6243 41.3453 46.9174C41.0327 47.2104 40.6088 47.375 40.1667 47.375H36.8334C36.3914 47.375 35.9675 47.2104 35.6549 46.9174C35.3423 46.6243 35.1667 46.2269 35.1667 45.8125V42.6875ZM35.1667 52.0625C35.1667 51.6481 35.3423 51.2507 35.6549 50.9576C35.9675 50.6646 36.3914 50.5 36.8334 50.5H40.1667C40.6088 50.5 41.0327 50.6646 41.3453 50.9576C41.6578 51.2507 41.8334 51.6481 41.8334 52.0625V55.1875C41.8334 55.6019 41.6578 55.9993 41.3453 56.2924C41.0327 56.5854 40.6088 56.75 40.1667 56.75H36.8334C36.3914 56.75 35.9675 56.5854 35.6549 56.2924C35.3423 55.9993 35.1667 55.6019 35.1667 55.1875V52.0625ZM45.1667 33.3125C45.1667 32.8981 45.3423 32.5007 45.6549 32.2076C45.9675 31.9146 46.3914 31.75 46.8334 31.75H50.1667C50.6088 31.75 51.0327 31.9146 51.3453 32.2076C51.6578 32.5007 51.8334 32.8981 51.8334 33.3125V36.4375C51.8334 36.8519 51.6578 37.2493 51.3453 37.5424C51.0327 37.8354 50.6088 38 50.1667 38H46.8334C46.3914 38 45.9675 37.8354 45.6549 37.5424C45.3423 37.2493 45.1667 36.8519 45.1667 36.4375V33.3125ZM45.1667 42.6875C45.1667 42.2731 45.3423 41.8757 45.6549 41.5826C45.9675 41.2896 46.3914 41.125 46.8334 41.125H50.1667C50.6088 41.125 51.0327 41.2896 51.3453 41.5826C51.6578 41.8757 51.8334 42.2731 51.8334 42.6875V45.8125C51.8334 46.2269 51.6578 46.6243 51.3453 46.9174C51.0327 47.2104 50.6088 47.375 50.1667 47.375H46.8334C46.3914 47.375 45.9675 47.2104 45.6549 46.9174C45.3423 46.6243 45.1667 46.2269 45.1667 45.8125V42.6875ZM45.1667 52.0625C45.1667 51.6481 45.3423 51.2507 45.6549 50.9576C45.9675 50.6646 46.3914 50.5 46.8334 50.5H50.1667C50.6088 50.5 51.0327 50.6646 51.3453 50.9576C51.6578 51.2507 51.8334 51.6481 51.8334 52.0625V55.1875C51.8334 55.6019 51.6578 55.9993 51.3453 56.2924C51.0327 56.5854 50.6088 56.75 50.1667 56.75H46.8334C46.3914 56.75 45.9675 56.5854 45.6549 56.2924C45.3423 55.9993 45.1667 55.6019 45.1667 55.1875V52.0625ZM55.1667 33.3125C55.1667 32.8981 55.3423 32.5007 55.6549 32.2076C55.9675 31.9146 56.3914 31.75 56.8334 31.75H60.1667C60.6088 31.75 61.0327 31.9146 61.3453 32.2076C61.6578 32.5007 61.8334 32.8981 61.8334 33.3125V36.4375C61.8334 36.8519 61.6578 37.2493 61.3453 37.5424C61.0327 37.8354 60.6088 38 60.1667 38H56.8334C56.3914 38 55.9675 37.8354 55.6549 37.5424C55.3423 37.2493 55.1667 36.8519 55.1667 36.4375V33.3125ZM55.1667 42.6875C55.1667 42.2731 55.3423 41.8757 55.6549 41.5826C55.9675 41.2896 56.3914 41.125 56.8334 41.125H60.1667C60.6088 41.125 61.0327 41.2896 61.3453 41.5826C61.6578 41.8757 61.8334 42.2731 61.8334 42.6875V55.1875C61.8334 55.6019 61.6578 55.9993 61.3453 56.2924C61.0327 56.5854 60.6088 56.75 60.1667 56.75H56.8334C56.3914 56.75 55.9675 56.5854 55.6549 56.2924C55.3423 55.9993 55.1667 55.6019 55.1667 55.1875V42.6875Z" fill="white"/>
</svg>
